<?xml version="1.0" encoding="UTF-8"?>
<!DOCTYPE svg PUBLIC "-//W3C//DTD SVG 1.1//EN" "http://www.w3.org/Graphics/SVG/1.1/DTD/svg11.dtd">
<!-- Creator: CorelDRAW 2019 (64-Bit) -->
<svg xmlns="http://www.w3.org/2000/svg" xml:space="preserve" width="0.996724in" height="0.997098in" version="1.1" style="shape-rendering:geometricPrecision; text-rendering:geometricPrecision; image-rendering:optimizeQuality; fill-rule:evenodd; clip-rule:evenodd"
viewBox="0 0 5105.8 5107.71"
 xmlns:xlink="http://www.w3.org/1999/xlink"
 xmlns:xodm="http://www.corel.com/coreldraw/odm/2003">
 <defs>
  <style type="text/css">
   <![CDATA[
    .fil0 {fill:black}
   ]]>
  </style>
 </defs>
 <g id="Layer_x0020_1">
  <metadata id="CorelCorpID_0Corel-Layer"/>
  <g id="_2045952529696">
   <path class="fil0" d="M3925.08 1618.75c131.43,0 262.97,-0.75 394.32,-0.77 83.23,0 78.19,20.89 124.25,67.24 35.25,35.47 71.64,63.77 98.38,103.72 -130.26,0 -264.88,3.47 -394.46,0.89 -56.25,-1.13 -39.81,4.13 -71.6,-24.16 -50.74,-45.18 -110.74,-86.96 -150.89,-146.92zm-1457.27 -85.11c0,89.06 69.88,85.77 159.47,85.17 85.07,-0.56 170.3,-0.06 255.38,-0.06 -36.71,76.48 -38.94,113.06 -125.81,182.66 -311.57,249.68 -731.18,-193.81 -456.8,-488.68 124.35,-133.65 312.82,-156.06 450.79,-51.47 88.29,66.94 94.61,109.77 131.82,187.3 -81.56,0 -163.16,0.32 -244.69,-0.04 -92.85,-0.4 -170.15,-8.03 -170.15,85.13zm1457.27 -85.09c43.9,-65.59 99.02,-98.44 145.63,-141.58 33.44,-30.92 17.67,-28.34 76.86,-29.51 129.58,-2.6 264.2,0.89 394.46,0.89 -25.41,37.96 -59.41,64.64 -93.07,98.4 -46.87,46.99 -45.34,72.56 -129.56,72.54 -131.35,0 -262.89,-0.75 -394.32,-0.75zm-1882.77 42.53c0,158.44 23.72,285.21 145.83,407.31 147.47,147.49 381.19,186.49 570.16,106.59 63.12,-26.68 88.33,-52.07 135.22,-88.15 71.78,-55.22 159.32,-192.14 159.32,-298.08l340.37 0c0,274.97 -237.64,580.34 -507.32,694.65 -433.52,183.75 -910.41,-14.02 -1106.09,-432.15 -222.39,-475.11 57.94,-1048.82 584.07,-1174.82 365.09,-87.45 768.31,96.99 937.33,429.93 38.1,75.06 92,206.27 92,312.19 -367.62,0 -325.04,24.93 -350.01,-64.84 -9.56,-34.37 -18.51,-56.93 -32.57,-84.42 -75.69,-147.87 -246.05,-276.24 -415.19,-276.24 -110.72,0 -165.7,-1.69 -269.82,49.31 -156.2,76.5 -283.31,252.9 -283.31,418.72zm-510.58 0c0,262 63.81,514.46 236.71,699.37 13.49,14.46 18.57,17.79 30.74,33.07 63.59,79.9 31.66,32.11 91.56,89.28 136.33,130.18 408.62,241.99 608.98,241.99 248.91,0 431.45,-37.31 631.93,-176.49 103.98,-72.16 115.28,-96.87 189.74,-171.93 129.31,-130.38 248.59,-403.96 252.68,-587.64 149.72,0 77.83,5.79 174.67,80.61 79.62,61.49 244.23,259.78 293.36,259.78l723.31 0c51.47,0 85.11,-33.66 85.11,-85.11 0,-60.97 -102.57,-139.76 -140.95,-178.16 -57.54,-57.6 -137.83,-117.86 -167.53,-162.23 21.1,-31.5 46.39,-55.48 78.96,-80.61 56.73,-43.76 229.53,-200.77 229.53,-259.78 0,-51.45 -33.64,-85.09 -85.11,-85.09l-712.68 0c-52.82,0 -79.5,42.05 -109.03,71.8 -34.39,34.61 -61.23,61.23 -95.74,95.74 -28.66,28.66 -171.99,172.86 -199.44,172.86l-74.46 0c-4.48,-200.85 -161.38,-528.15 -300.78,-645.93l-129.17 -104.85c-289.41,-208.96 -706.21,-248.1 -1027.5,-89.71 -91.68,45.2 -217.1,127.32 -289.53,199.76 -164.97,164.97 -295.35,438.04 -295.35,683.26z"/>
   <path class="fil0" d="M1021.17 1448.56c0,187.92 -6.57,268.35 42.33,457.6 29.02,112.23 46.65,223.15 138.49,223.15 187.4,0 -10.63,-239.27 -10.63,-595.67 0,-267.5 101.42,-573.06 244.55,-776.57 437.8,-622.49 1353.55,-787.81 1959.79,-289.61 156.32,128.49 231.02,215.55 330.65,382.06 107.19,179.15 81.3,258.65 188.1,258.65 129.54,0 63.71,-144.64 42.86,-191.79 -75.59,-170.98 -219.34,-393.45 -363.56,-508.67 -18.8,-15.05 -25.88,-24.95 -43.52,-41.57 -98.32,-92.55 -273.41,-189.41 -394.64,-243.6 -337.32,-150.77 -789.28,-165.09 -1137.76,-28.09 -248.32,97.61 -317.58,155.37 -499.87,308.52 -23.27,19.56 -29.93,19.42 -53.12,42.61l-84.58 96.24c-135.41,151 -261.01,398.41 -310.32,593.84 -23.37,92.59 -48.77,204.68 -48.77,312.9z"/>
   <path class="fil0" d="M3488.96 2895.2c0,-65.73 25.96,-156.44 46.73,-208.57 19.89,-49.91 70.12,-115.54 104.55,-150.73 36.64,-37.45 97.31,-83.25 150.73,-104.55 275.11,-109.69 551.83,2.04 669.1,247.98 123.69,259.44 -7.24,563.18 -244.65,676.4 -331.72,158.15 -726.46,-93.82 -726.46,-460.53zm-170.19 -42.55l0 85.09c0,321.23 317.01,638.22 638.22,638.22l85.11 0c321.21,0 638.22,-316.99 638.22,-638.22l0 -85.09c0,-321.21 -317.01,-638.22 -638.22,-638.22l-85.11 0c-321.21,0 -638.22,317.01 -638.22,638.22z"/>
   <path class="fil0" d="M595.67 2895.2c0,-65.73 25.96,-156.44 46.73,-208.57 19.89,-49.91 70.12,-115.54 104.55,-150.73 145.89,-149.12 359.69,-186.75 560.2,-107.51 106.77,42.19 209.08,144.88 259.64,250.95 95.21,199.68 38.66,429.83 -95.84,569.92 -34.31,35.74 -101.54,83.94 -148.82,106.49 -191.53,91.32 -427.84,46.35 -575.3,-101.12 -89.69,-89.71 -151.16,-230.27 -151.16,-359.41zm-170.19 -42.55l0 85.09c0,321.23 317.01,638.22 638.22,638.22l85.11 0c321.21,0 638.22,-316.99 638.22,-638.22l0 -85.09c0,-321.21 -317.01,-638.22 -638.22,-638.22l-85.11 0c-321.21,0 -638.22,317.01 -638.22,638.22z"/>
   <path class="fil0" d="M2042.31 3320.68c0,-188.55 127.48,-394.28 302.03,-463.86 275.09,-109.67 551.81,2.04 669.08,247.98 244.77,513.37 -423.52,971.74 -819.96,575.3 -89.71,-89.71 -151.16,-230.27 -151.16,-359.43zm-170.19 -42.55l0 85.11c0,321.21 317.01,638.22 638.22,638.22l85.11 0c321.21,0 638.22,-317.01 638.22,-638.22l0 -85.11c0,-321.21 -317.01,-638.22 -638.22,-638.22l-85.11 0c-321.21,0 -638.22,317.01 -638.22,638.22z"/>
   <path class="fil0" d="M1446.64 4501.39l0 521.21c0,51.47 33.64,85.11 85.09,85.11 120.34,0 85.11,-188.06 85.11,-382.94 0,-184.05 -45.34,-248.14 138.31,-329.7 339.08,-150.59 860.98,-163.7 1229.32,-101.87 141.72,23.78 256.09,52.96 366.18,101.87 183.65,81.56 138.31,145.65 138.31,329.7 0,194.88 -35.23,382.94 85.11,382.94 51.45,0 85.09,-33.64 85.09,-85.11l0 -521.21c0,-297.69 -668.56,-414.85 -1010.52,-414.85l-191.47 0c-341.74,0 -1010.52,117.68 -1010.52,414.85z"/>
   <path class="fil0" d="M3095.39 4001.46c69.44,0 111.1,-38.56 213.94,-73.27 144.32,-48.7 296.52,-68.31 447.1,-84.74l253.77 -12.18c79.84,0 128.31,8.15 213.05,10.33 62.32,1.59 145.47,15.65 207.87,26.12 117.44,19.72 453.47,91.6 497.62,204.44 16.88,43.1 7.36,388.03 6.72,461.31 -0.75,85.95 0.71,148.76 85.27,148.76 51.45,0 85.09,-33.64 85.09,-85.09l0 -521.21c0,-297.17 -668.78,-414.85 -1010.52,-414.85 -318.39,0 -735.96,14.54 -1003.72,166.36 -129.78,73.55 -35.47,174.03 3.83,174.03z"/>
   <path class="fil0" d="M-0 4075.92l0 521.21c0,92.51 172.49,163.78 170.48,-52.9 -0.73,-78.09 -0.28,-156.2 -0.28,-234.31 0,-217.41 -32.09,-261.37 131.01,-337.02 148.94,-69.09 382.04,-116.15 560.96,-130.44 229.25,-18.31 486.93,-6.29 712.24,31.24 116.27,19.38 212,46.26 314.57,89.62 59.41,25.13 52.31,38.14 121.43,38.14 56.39,0 63.83,-66.25 63.83,-106.38 0,-140.04 -668.6,-234 -850.97,-234l-212.75 0c-341.74,0 -1010.52,117.68 -1010.52,414.85z"/>
  </g>
 </g>
</svg>
