<?xml version="1.0" encoding="UTF-8"?>
<!DOCTYPE svg PUBLIC "-//W3C//DTD SVG 1.1//EN" "http://www.w3.org/Graphics/SVG/1.1/DTD/svg11.dtd">
<!-- Creator: CorelDRAW 2019 (64-Bit) -->
<svg xmlns="http://www.w3.org/2000/svg" xml:space="preserve" width="0.0533307in" height="0.0533386in" version="1.1" style="shape-rendering:geometricPrecision; text-rendering:geometricPrecision; image-rendering:optimizeQuality; fill-rule:evenodd; clip-rule:evenodd"
viewBox="0 0 1.31 1.31"
 xmlns:xlink="http://www.w3.org/1999/xlink"
 xmlns:xodm="http://www.corel.com/coreldraw/odm/2003">
 <defs>
  <style type="text/css">
   <![CDATA[
    .str0 {stroke:#2B2A29;stroke-width:0.19;stroke-miterlimit:2.61313}
    .fil1 {fill:none}
    .fil2 {fill:red}
    .fil0 {fill:#00CCFF}
   ]]>
  </style>
    <clipPath id="id0">
     <path d="M0.37 0.81c-0.11,-0.02 -0.22,-0.22 -0.24,-0.33 -0.01,-0.06 -0.01,-0.42 -0.01,-0.43 0.04,0 0.23,0 0.24,0 -0,0.02 -0,0.7 -0,0.76z"/>
    </clipPath>
    <clipPath id="id1">
     <path d="M0.37 0.81c-0.11,-0.02 -0.22,-0.22 -0.24,-0.33 -0.01,-0.06 -0.01,-0.42 -0.01,-0.43 0.04,0 0.23,0 0.24,0 -0,0.02 -0,0.7 -0,0.76z"/>
    </clipPath>
    <clipPath id="id2">
     <path d="M0.37 0.84c-0.11,-0.02 -0.23,-0.2 -0.25,-0.31l0 0.27c0,0.25 0.21,0.46 0.47,0.46l0.13 0c0.26,0 0.47,-0.21 0.47,-0.46l0 -0.75 -0.24 0 0 0.75c0,0.14 -0.1,0.25 -0.22,0.25l-0.13 0c-0.11,0 -0.2,-0.09 -0.22,-0.21z"/>
    </clipPath>
 </defs>
 <g id="Layer_x0020_1">
  <metadata id="CorelCorpID_0Corel-Layer"/>
  <g id="_2046146645520">
   <g style="clip-path:url(#id0)">
    <polygon class="fil0" points="0.12,0.05 0.37,0.05 0.37,0.81 0.12,0.81 "/>
   </g>
   <g style="clip-path:url(#id1)">
    <g>
     <ellipse class="fil1 str0" cx="-2.37" cy="-0.34" rx="0.15" ry="0.19"/>
    </g>
   </g>
   <path class="fil1" d="M0.37 0.81c-0.11,-0.02 -0.22,-0.22 -0.24,-0.33 -0.01,-0.06 -0.01,-0.42 -0.01,-0.43 0.04,0 0.23,0 0.24,0 -0,0.02 -0,0.7 -0,0.76z"/>
   <path class="fil2" d="M0.37 0.84c-0.11,-0.02 -0.23,-0.2 -0.25,-0.31l0 0.27c0,0.25 0.21,0.46 0.47,0.46l0.13 0c0.26,0 0.47,-0.21 0.47,-0.46l0 -0.75 -0.24 0 0 0.75c0,0.14 -0.1,0.25 -0.22,0.25l-0.13 0c-0.11,0 -0.2,-0.09 -0.22,-0.21z"/>
   <g style="clip-path:url(#id2)">
    <g>
     <ellipse class="fil1 str0" cx="-2.37" cy="-0.34" rx="0.15" ry="0.19"/>
    </g>
   </g>
   <path class="fil1" d="M0.37 0.84c-0.11,-0.02 -0.23,-0.2 -0.25,-0.31l0 0.27c0,0.25 0.21,0.46 0.47,0.46l0.13 0c0.26,0 0.47,-0.21 0.47,-0.46l0 -0.75 -0.24 0 0 0.75c0,0.14 -0.1,0.25 -0.22,0.25l-0.13 0c-0.11,0 -0.2,-0.09 -0.22,-0.21z"/>
  </g>
  <rect class="fil1" x="-0" y="0" width="1.31" height="1.31"/>
 </g>
</svg>
