<?xml version="1.0" encoding="UTF-8"?>
<!DOCTYPE svg PUBLIC "-//W3C//DTD SVG 1.1//EN" "http://www.w3.org/Graphics/SVG/1.1/DTD/svg11.dtd">
<!-- Creator: CorelDRAW 2019 (64-Bit) -->
<svg xmlns="http://www.w3.org/2000/svg" xml:space="preserve" width="1.06798in" height="1.06798in" version="1.1" style="shape-rendering:geometricPrecision; text-rendering:geometricPrecision; image-rendering:optimizeQuality; fill-rule:evenodd; clip-rule:evenodd"
viewBox="0 0 275.29 275.29"
 xmlns:xlink="http://www.w3.org/1999/xlink"
 xmlns:xodm="http://www.corel.com/coreldraw/odm/2003">
 <defs>
  <style type="text/css">
   <![CDATA[
    .fil0 {fill:black}
   ]]>
  </style>
 </defs>
 <g id="Layer_x0020_1">
  <metadata id="CorelCorpID_0Corel-Layer"/>
  <g id="_2045939848368">
   <path class="fil0" d="M119.9 254.32l0 -1.61 36.56 0c0,6.87 -0.31,13.44 -11.83,13.44 -14.21,0 -24.73,2.38 -24.73,-11.83zm-119.9 -83.88l0 -19.09c0.62,-3.2 2.51,-3.88 7.66,-4.97 3.81,-0.81 7.12,-1.46 10.62,-2.28 -12.71,-18.97 -12.63,-13.26 3.9,-29.98 7.53,-7.62 8.5,-0.46 20.3,5.78 2.97,-12.74 1.69,-18.28 9.14,-18.28 0,-7.36 1.4,-12.54 2.9,-18.61 2.57,-10.39 7.59,-20.05 13.91,-28.56 3.35,-4.5 6.06,-7.15 9.94,-11.03 13.11,-13.13 34.19,-24.06 60.35,-24.06 9.34,0 6.57,1.79 13.98,-3.76 11.76,-8.81 10.61,-10.4 19.74,1.77 1.35,1.81 2.32,3.08 3.68,4.92 1.57,2.13 2.85,4.07 5.61,4.07 3.22,0 3.95,-1.83 4.41,-4.73 3.93,-25.04 0.38,-21.69 24.4,-18.15 4.2,0.62 14.21,0.31 14.21,5.68 0,7.22 -5.38,23.66 1.08,23.66 4.54,0 7.44,-3.43 11.37,-6.38 8.16,-6.12 9.1,-9.53 16.13,-0.15 17.24,22.99 18.84,20.04 5.61,29.96 -2.72,2.04 -8.91,5.19 -8.91,8.83 0,9.61 25.27,2.16 25.27,11.29 0,5.84 -2.44,20.8 -3.59,27.05 -0.48,2.6 -1.82,5.21 -4.47,5.21 -8.68,0 -23.66,-6.28 -23.66,1.61 0,2.53 1.46,3.93 2.84,5.76 9,11.91 13.37,13.87 4.53,20.43 -2.11,1.57 -3.79,2.83 -5.84,4.38 -7.91,5.93 -14.69,13.6 -19.18,9.12 -3.44,-3.44 -10.7,-16.57 -14.62,-16.57 -6.12,0 -5.55,13.7 -6.82,20.6 -1.46,7.91 -8.97,4.55 -19.56,3.09 -9.88,-1.37 -18.27,0.02 -16.74,-9.8 0.49,-3.13 2.97,-15.24 1.76,-17.67 -3.29,-6.6 -11.3,1.81 -18.24,7.08 -6.45,4.9 -8.08,2.69 -12.29,-2.92 -1.74,-2.31 -3.1,-4.14 -4.84,-6.45 -1.81,-2.41 -3.3,-4.4 -5.07,-6.76 -2.32,-3.09 -4.22,-4.48 -4.22,-8.68 0,-2.58 11.38,-10.04 14.22,-12.13 4.55,-3.35 5.45,-8.5 -1.8,-9.44 -24.35,-3.13 -21.12,-1.01 -17.77,-25.18 0.53,-3.85 -0.07,-13.47 5.88,-13.47 7.78,0 23.66,6.38 23.66,-2.15 0,-2.96 -7.8,-11.68 -10.07,-14.66 -1.39,-1.83 -2.3,-2.65 -2.3,-5.77 -11.94,0 -24.71,3.24 -33.7,7.7 -7.12,3.53 -16.08,9.58 -21.55,15.55 -1.06,1.15 -1.15,1.56 -2.15,2.69l-6.15 7.82c-19.56,29.04 -16.73,65.69 4.49,92.53 11.76,14.88 27.52,17.3 31.96,34.71 2.79,10.93 -4.22,34.72 9.91,34.72l37.64 0c2.97,0 5.99,-2.8 6.98,-4.85 1.41,-2.91 1.08,-6.51 1.08,-10.75 -0.01,-21.82 0.88,-28.36 17.96,-40.11 2.5,-1.72 4.13,-3.22 6.24,-5.05 1.06,0.71 5.7,5.86 6.45,6.99 -1.26,0.84 -1.97,1.72 -3.22,2.69 -8.16,6.37 -16.14,9.73 -17.85,21.94 -2.56,18.27 4.59,26.64 -9.57,36.13 0,6.74 0.72,24.99 -0.39,29.72 -1.63,6.94 -8.78,13.84 -16.27,13.84l-21.51 0c-4.05,0 -8.07,-2.57 -10.46,-4.6 -9.38,-7.95 -6.21,-24.27 -6.21,-38.95 -10.26,-6.87 -9.14,-12.28 -9.14,-28.5 -8.33,5.58 -5.64,12.74 -18.28,3.76 -2.33,-1.65 -4.58,-3.22 -6.99,-4.84 -0.82,3.51 -1.48,6.81 -2.28,10.62 -0.69,3.27 -0.96,7.66 -5.25,7.66 -21.37,0 -21.93,2.48 -24.06,-7.66 -0.81,-3.82 -1.46,-7.12 -2.28,-10.62 -12.98,8.69 -13.88,12.24 -20.57,5.51 -15.84,-15.95 -16.44,-10.57 -3.63,-29.71 -7.7,-1.79 -18.28,-2.09 -18.28,-7.53zm119.9 63.98l36.56 0 0 8.6 -36.56 0 0 -8.6zm-78.5 -72.59c0,-11.38 7.65,-18.82 18.28,-18.82 0.34,1.47 2.49,5.09 3.4,6.82 1.18,2.22 2.63,4.13 4.01,6.2 1.48,2.22 2.89,3.84 4.41,5.81 1.55,2 3.53,3.42 4.84,5.37 -1.67,3.15 -3.06,6.07 -5.9,8.08 -7.59,5.37 -16.81,4.97 -23.55,-1.22 -2.75,-2.53 -5.5,-7.12 -5.5,-12.24zm-21.51 -32.26l7.93 -8.2c2.44,1.68 4.37,3.15 6.79,4.76 2.34,1.56 4.3,3.44 7.85,3.44 5.8,0 9.22,-4.2 9.68,-9.68l3.76 13.98c-11.77,0.26 -24.2,12.3 -24.2,27.96 0,18.19 21.32,35.15 42.32,22.42 4.38,-2.66 6.98,-5.69 9.3,-10.06 1.78,0.47 7.79,5.1 9.69,6.44 1.53,1.08 2.91,2.31 4.07,4 6.67,9.66 -0.63,7.55 -6.23,15.9 -3.36,-2.25 -10.54,-8.06 -14.52,-8.06 -4.75,0 -7.96,3 -9.04,6.55 -4.21,13.78 1.89,12.27 -11.93,12.27 -4.44,0 0.26,-18.82 -12.9,-18.82 -3.85,0 -10.31,5.25 -14.52,8.06l-8.2 -7.93c2.81,-4.09 8.2,-10.82 8.2,-14.65 0,-12.98 -18.82,-8.65 -18.82,-12.9 0,-13.13 -1.8,-8.11 11.85,-11.81 3.61,-0.98 6.97,-4.31 6.97,-8.62 0,-4.31 -5.26,-10.86 -8.07,-15.05zm193.02 -100.54c0,7.5 9.69,20 24.28,9.22 1.72,-1.27 6.9,-5.57 8.52,-6 1.05,0.77 1.87,2.15 2.68,3.23 0.98,1.3 1.76,2.15 2.85,3.6 1.88,2.52 3.54,4.63 5.22,7.14 -3.84,2.57 -12.03,8.35 -14.16,12.18 -4.19,7.52 -1.02,15.9 5.89,19.21 2.42,1.16 13.43,3.02 16.88,3.02 0,6.18 -2.15,12.05 -2.15,17.74 -5.4,0 -8.88,-1.61 -16.67,-1.61 -6.19,0 -19.05,9.52 -7.99,24.12 2.22,2.93 4.37,5.68 6.38,8.68 -4.64,2.46 -12.25,9.98 -15.05,10.22 -0.44,-1.64 -2.25,-3.54 -3.23,-4.84 -1.18,-1.57 -2.14,-2.93 -3.45,-4.62 -7.01,-9.03 -23.85,-10.38 -26.08,10.04 -0.31,2.84 -1.06,6.01 -1.12,8.56 -1.81,-0.04 -5.1,-0.69 -6.61,-0.91 -13.85,-2 -11.53,1.03 -9.73,-11.67 0.78,-5.5 0.62,-9.2 -1.91,-12.71 -3.63,-5.01 -7.24,-5.89 -12.92,-5.89 -6.6,0 -13.34,9.04 -17.74,10.22 -3.24,-4.83 -6.98,-9.15 -10.22,-13.98 1.76,-2.41 10.73,-7.3 13.22,-10.97 3.88,-5.71 3.43,-12.63 -0.98,-17.41 -4.41,-4.78 -10.65,-4.98 -18.3,-5.9 -3.01,-0.36 -3.03,-0.06 -2.78,-2.38l2.39 -16.03c1.39,0.67 13.02,2.15 15.59,2.15 7.19,0 14.07,-7.34 13.24,-14.85 -0.8,-7.28 -7.6,-12.36 -10.56,-17.95l14.52 -10.75c0.38,1.41 5.89,8.58 7.15,10.06 8.14,9.63 19.89,6.96 24.05,-1.98 2.02,-4.34 2,-11.44 3.21,-16.68 5.95,0 11.79,2.15 17.74,2.15 -0.39,4.71 -2.15,10.86 -2.15,15.59z"/>
   <path class="fil0" d="M169.37 82.26c0,-8.61 1.64,-15.78 8.18,-21.93 17.41,-16.36 46.12,-4.56 46.12,20.31 0,19.38 -21.74,31.67 -37.1,24.74 -9.24,-4.17 -17.2,-12.43 -17.2,-23.12zm-9.68 -2.69c0,39.16 52.42,51.62 69.91,16.14 8.77,-17.78 0.64,-39.05 -16.32,-48.23 -10.16,-5.5 -22.42,-5.11 -32.86,-0.41 -12.2,5.5 -20.73,19.02 -20.73,32.49z"/>
   <path class="fil0" d="M74.2 104.85c0,12.42 2.37,21.89 6.98,30.66 6.76,12.86 14.52,19.91 26.66,27.11 3.89,2.31 8.3,3.41 11.97,5.78 3.99,2.57 6.22,4.86 8.93,8.81 3.13,4.58 4.61,9.63 4.61,15.82l9.68 0c0,-2.89 -1.04,-9.15 -1.85,-11.59 -1.63,-4.91 -3.89,-8.97 -7.12,-12.77 -1.31,-1.54 -1.66,-2.34 -3.26,-3.73 -4.86,-4.24 -7.16,-5.43 -12.65,-7.78 -8.21,-3.51 -10.59,-5.76 -16.82,-10.6 -3.58,-2.78 -6.99,-7.62 -9.47,-11.5 -11.59,-18.06 -11.27,-42.94 2.86,-61.87 2.36,-3.16 10.88,-12.02 14.45,-12.98 -0.46,-1.73 -1.38,-2.58 -2.37,-4.08 -0.99,-1.5 -1.55,-2.62 -2.47,-3.99 -5.39,1.44 -17.39,15.19 -20.74,20.66 -4.88,7.96 -9.37,19.48 -9.37,32.03z"/>
   <path class="fil0" d="M51.08 2.15l9.14 36.56c2.2,0 8.25,-1.47 9.68,-2.15 -0.79,-1.65 -1.8,-6.5 -2.46,-8.83 -1.31,-4.62 -6.07,-25.35 -7.22,-27.73 -2.66,0.22 -6.5,1.54 -9.14,2.15z"/>
   <path class="fil0" d="M12.37 32.8c5.16,2.73 27.24,19.93 32.26,22.58 0.4,-1.5 3.54,-5.58 4.84,-7.53l-32.26 -23.12c-0.86,1.63 -1.38,2.4 -2.54,3.91 -1.08,1.42 -1.86,2.27 -2.3,4.15z"/>
   <path class="fil0" d="M4.84 78.5c0,3.84 1.53,5.6 1.61,9.14 3.02,0 6.49,-1.22 9.36,-1.94 3.23,-0.81 6.17,-1.54 9.03,-2.26 3.46,-0.87 16.27,-4.35 18.71,-4.41 -0.22,-2.66 -1.54,-6.5 -2.15,-9.14 -2.42,0.05 -15.11,3.51 -18.28,4.3 -3.17,0.79 -15.86,4.25 -18.28,4.3z"/>
   <path class="fil0" d="M217.76 201.09c1.21,1.81 20.59,17.53 23.82,20.27 1.06,0.9 2.63,2.21 3.6,2.85 1.84,-2.75 4.85,-5.55 5.38,-7.53l-23.35 -19.67c-1.47,-1.15 -2.25,-2.06 -3.53,-2.92 -1.65,1.11 -5,5.26 -5.91,6.99z"/>
   <polygon class="fil0" points="224.75,179.58 257.01,179.58 257.01,169.9 224.75,169.9 "/>
   <polygon class="fil0" points="197.32,238.72 207,238.72 207,206.46 197.32,206.46 "/>
   <path class="fil0" d="M133.34 214.53c0,1.24 0.37,1.61 1.61,1.61l8.06 0 0 -13.98 -9.68 0 0 12.37z"/>
  </g>
 </g>
</svg>
