<?xml version="1.0" encoding="UTF-8"?>
<!DOCTYPE svg PUBLIC "-//W3C//DTD SVG 1.1//EN" "http://www.w3.org/Graphics/SVG/1.1/DTD/svg11.dtd">
<!-- Creator: CorelDRAW 2019 (64-Bit) -->
<svg xmlns="http://www.w3.org/2000/svg" xml:space="preserve" width="1.79741in" height="0.617256in" version="1.1" style="shape-rendering:geometricPrecision; text-rendering:geometricPrecision; image-rendering:optimizeQuality; fill-rule:evenodd; clip-rule:evenodd"
viewBox="0 0 25683.66 8820.13"
 xmlns:xlink="http://www.w3.org/1999/xlink"
 xmlns:xodm="http://www.corel.com/coreldraw/odm/2003">
 <defs>
  <style type="text/css">
   <![CDATA[
    .fil5 {fill:white}
    .fil1 {fill:#FEFEFE;fill-rule:nonzero}
    .fil3 {fill:#00CCFF;fill-rule:nonzero}
    .fil2 {fill:red;fill-rule:nonzero}
    .fil0 {fill:white;fill-rule:nonzero}
    .fil4 {fill:#00CCFF}
   ]]>
  </style>
 </defs>
 <g id="Layer_x0020_1">
  <metadata id="CorelCorpID_0Corel-Layer"/>
  <path class="fil0" d="M6265.67 0c-521.05,0 -1008.63,394.08 -1008.63,875.02l0 4114.69 1001.94 0 0 -4114.69 1389.38 3273.03c207.08,480.94 474.25,875.08 995.24,875.08 521.05,0 1008.63,-394.14 1008.63,-875.08l0 -4114.63 -1001.94 0 0 4114.63 -1389.38 -3273.03c-207.08,-480.94 -474.25,-875.02 -995.24,-875.02z"/>
  <polygon class="fil1" points="10627.56,1462.57 10627.56,4989.71 11629.44,4989.71 11629.44,1462.57 "/>
  <path class="fil1" d="M14675.47 4989.71l0 -4094.66 1422.74 0 0 -861.63 -1482.88 0c-521,0 -941.8,394.08 -941.8,875.02l0 4081.27 1001.94 0zm-814.94 -4956.29l-1522.93 0 0 861.63 988.55 0 534.38 -861.63z"/>
  <path class="fil0" d="M17721.44 2965.75l2357.9 0 0 -861.69 -2357.9 0 0 -1209.02 2558.28 0 467.61 -861.63 -3086.03 0c-521,0 -941.8,394.08 -941.8,875.02l0 3206.25c0,480.94 420.8,875.02 941.8,875.02l3086.03 0 -467.61 -861.69 -2558.28 0 0 -1162.27z"/>
  <path class="fil0" d="M24681.72 3106.06c0,561.05 -407.47,1021.96 -915.13,1021.96l-1289.18 0 0 -3232.97 1289.18 0c507.66,0 915.13,460.91 915.13,1022.02l0 1188.99zm-3206.25 -2197.62l0 4081.27 2291.12 0c1055.38,0 1917.07,-841.66 1917.07,-1883.65l0 -1188.99c0,-1042.05 -861.69,-1883.65 -1917.07,-1883.65l-1349.32 0c-521,0 -941.8,394.08 -941.8,875.02z"/>
  <path class="fil2" d="M13728.33 8177.28l0 -1091.05 -238.87 0 0 -274.25 238.87 0 0 -515.99 312.56 0 0 515.99 238.87 0 0 274.25 -238.87 0 0 1091.05 -312.56 0zm2135.4 -636.94l-1091.05 0c7.88,127.82 45.68,227.56 114.03,299.29 67.79,71.78 158.7,107.68 272.23,107.68 100.76,0 184.8,-21.15 251.64,-63.4 67.34,-42.31 125.85,-110.6 175.97,-204.94l262.44 146.94c-76.68,137.6 -171.53,239.32 -285.05,306.66 -113.02,67.34 -246.24,100.76 -398.58,100.76 -219.18,0 -393.18,-66.83 -522.91,-200.05 -129.28,-133.67 -194.14,-311.55 -194.14,-534.22 0,-214.28 66.83,-389.69 201.01,-527.8 133.67,-137.6 305.7,-206.41 516.04,-206.41 219.68,0 391.21,62.9 514.08,188.69 122.87,125.34 184.3,301.76 184.3,527.86l0 58.96zm-324.38 -209.33c-12.26,-97.83 -49.62,-172.54 -112.06,-223.62 -62.39,-51.64 -147.9,-77.18 -256.03,-77.18 -102.73,0 -185.31,25.09 -247.7,74.71 -61.94,50.12 -105.65,125.34 -130.74,226.1l746.53 0zm1669.48 -129.78c-48.16,-52.54 -103.68,-92.88 -167.59,-120.39 -63.85,-28.02 -132.65,-41.8 -206.91,-41.8 -127.25,0 -229.47,41.29 -306.66,123.88 -76.68,82.59 -114.99,191.67 -114.99,328.32 0,141.99 38.82,253.55 116,334.67 77.13,81.07 183.79,121.4 320.44,121.4 75.67,0 143.46,-14.29 202.98,-42.31 59.46,-28.47 111.56,-71.22 156.73,-128.77l0 359.76c-57.49,32.46 -119.43,56.54 -185.25,72.74 -65.37,16.2 -135.64,24.58 -209.39,24.58 -214.28,0 -388.74,-68.3 -523.41,-204.44 -135.13,-136.14 -202.47,-313.07 -202.47,-529.83 0,-219.68 69.81,-397.06 209.39,-531.74 140.08,-135.13 322.41,-202.47 548.45,-202.47 70.77,0 136.14,6.86 195.61,21.1 59.46,13.78 115.5,35.39 167.08,64.41l0 350.87zm318.98 976.06l0 -2232.22 293.89 0 0 1091.05c62.45,-94.34 135.69,-163.15 220.19,-206.41 84.55,-43.26 187.28,-64.86 308.63,-64.86 101.77,0 188.24,16.2 260.02,48.16 71.22,32.4 127.25,80.11 167.59,143.51 24.08,37.35 41.29,81.07 52.09,131.19 10.3,49.67 15.7,137.15 15.7,261.99l0 827.6 -315.49 0 0 -700.85c0,-179.35 -21.66,-298.78 -65.37,-357.74 -43.77,-59.01 -121.4,-88.49 -232.96,-88.49 -72.74,0 -138.11,13.28 -195.1,40.34 -57.04,27 -102.22,64.86 -134.68,113.53 -23.07,32.91 -39.32,74.65 -48.16,126.3 -9.34,51.08 -13.78,132.65 -13.78,245.22l0 621.7 -312.56 0zm2623.43 0l0 -2232.22 293.89 0 0 1091.05c62.45,-94.34 135.69,-163.15 220.19,-206.41 84.55,-43.26 187.28,-64.86 308.63,-64.86 101.77,0 188.24,16.2 260.02,48.16 71.22,32.4 127.25,80.11 167.59,143.51 24.08,37.35 41.29,81.07 52.09,131.19 10.3,49.67 15.7,137.15 15.7,261.99l0 827.6 -315.49 0 0 -700.85c0,-179.35 -21.66,-298.78 -65.37,-357.74 -43.77,-59.01 -121.4,-88.49 -232.96,-88.49 -72.74,0 -138.11,13.28 -195.1,40.34 -57.04,27 -102.22,64.86 -134.68,113.53 -23.07,32.91 -39.32,74.65 -48.16,126.3 -9.34,51.08 -13.78,132.65 -13.78,245.22l0 621.7 -312.56 0zm3048.56 -636.94l-1091.05 0c7.88,127.82 45.68,227.56 114.03,299.29 67.79,71.78 158.7,107.68 272.23,107.68 100.76,0 184.8,-21.15 251.64,-63.4 67.34,-42.31 125.85,-110.6 175.97,-204.94l262.44 146.94c-76.68,137.6 -171.53,239.32 -285.05,306.66 -113.02,67.34 -246.24,100.76 -398.58,100.76 -219.18,0 -393.18,-66.83 -522.91,-200.05 -129.28,-133.67 -194.14,-311.55 -194.14,-534.22 0,-214.28 66.83,-389.69 201.01,-527.8 133.67,-137.6 305.7,-206.41 516.04,-206.41 219.68,0 391.21,62.9 514.08,188.69 122.87,125.34 184.3,301.76 184.3,527.86l0 58.96zm-324.38 -209.33c-12.26,-97.83 -49.62,-172.54 -112.06,-223.62 -62.39,-51.64 -147.9,-77.18 -256.03,-77.18 -102.73,0 -185.31,25.09 -247.7,74.71 -61.94,50.12 -105.65,125.34 -130.74,226.1l746.53 0zm663.94 846.27l0 -2232.22 312.62 0 0 2232.22 -312.62 0zm1060.61 -687.07c0,141.54 35.39,254.56 106.16,339.12 70.26,84.55 163.15,126.8 278.64,126.8 117.97,0 209.39,-39.32 274.25,-118.48 64.86,-78.59 97.32,-190.65 97.32,-335.63 0,-144.02 -33.92,-257.04 -101.77,-338.16 -67.28,-81.07 -160.22,-121.85 -278.64,-121.85 -117.97,0 -209.84,39.32 -276.22,118.42 -66.33,78.65 -99.74,188.74 -99.74,329.78zm-302.27 1329.91l0 -2008.15 312.56 0 0 222.66c36.4,-86.02 94.91,-152.34 174.96,-199.54 80.11,-46.69 175.97,-70.26 287.53,-70.26 181.37,0 328.77,66.83 441.84,201.01 112.51,133.67 169.05,309.58 169.05,527.3 0,229.53 -55.53,410.39 -166.63,542.09 -110.54,132.2 -262.89,198.08 -455.57,198.08 -96.31,0 -181.32,-19.18 -256.03,-57.49 -74.2,-38.37 -139.57,-96.82 -195.16,-174.96l0 819.27 -312.56 0z"/>
  <polygon class="fil3" points="10627.5,941.35 10627.5,33.42 11629.55,33.42 11629.55,941.35 "/>
  <path class="fil4" d="M1001.71 3143.36c-462.66,-97.04 -921.66,-915.64 -972.35,-1335.82 -24.98,-238.42 -26.16,-1728.16 -29.37,-1773.95 179.8,0 939.15,0.68 1003.51,0.68 -6.98,90.07 -1.24,2874.34 -1.8,3109.1z"/>
  <path class="fil5" d="M1014.2 3272.02c-462.66,-97.04 -963.29,-838.57 -1014.03,-1258.75l0 1092.79c0,1042.05 861.69,1883.65 1917.01,1883.65l534.38 0c1055.32,0 1917.01,-841.6 1917.01,-1883.65l0 -3072.64 -1001.94 0 0 3072.64c0,561.11 -407.41,1021.96 -915.08,1021.96l-534.38 0c-456.64,0 -832.1,-372.93 -902.98,-856.01z"/>
 </g>
</svg>
