<svg width="440" height="411" viewBox="0 0 440 411" fill="none" xmlns="http://www.w3.org/2000/svg">
<mask id="path-1-inside-1_249_180" fill="white">
<path fill-rule="evenodd" clip-rule="evenodd" d="M186.334 409.471C81.648 398.834 9.15527e-05 311.599 9.15527e-05 205.561C9.15527e-05 92.3422 93.0787 0.560547 207.897 0.560547C322.715 0.560547 415.794 92.3422 415.794 205.561C415.794 254.246 398.582 298.968 369.832 334.132H401.905C422.944 334.132 440 351.188 440 372.227C440 393.267 422.944 410.323 401.905 410.323H218.005C214.655 410.481 211.286 410.561 207.897 410.561C204.508 410.561 201.138 410.481 197.789 410.323H194.38C191.62 410.323 188.928 410.029 186.334 409.471Z"/>
</mask>
<path fill-rule="evenodd" clip-rule="evenodd" d="M186.334 409.471C81.648 398.834 9.15527e-05 311.599 9.15527e-05 205.561C9.15527e-05 92.3422 93.0787 0.560547 207.897 0.560547C322.715 0.560547 415.794 92.3422 415.794 205.561C415.794 254.246 398.582 298.968 369.832 334.132H401.905C422.944 334.132 440 351.188 440 372.227C440 393.267 422.944 410.323 401.905 410.323H218.005C214.655 410.481 211.286 410.561 207.897 410.561C204.508 410.561 201.138 410.481 197.789 410.323H194.38C191.62 410.323 188.928 410.029 186.334 409.471Z" fill="white"/>
<path d="M186.334 409.471L186.435 408.476L186.49 408.482L186.544 408.494L186.334 409.471ZM369.832 334.132V335.132H367.723L369.058 333.499L369.832 334.132ZM218.005 410.323L217.957 409.324L217.981 409.323H218.005V410.323ZM197.789 410.323V409.323H197.813L197.837 409.324L197.789 410.323ZM1.00009 205.561C1.00009 311.07 82.243 397.889 186.435 408.476L186.233 410.466C81.0529 399.779 -0.999908 312.129 -0.999908 205.561H1.00009ZM207.897 1.56055C93.6177 1.56055 1.00009 92.9076 1.00009 205.561H-0.999908C-0.999908 91.7767 92.5397 -0.439453 207.897 -0.439453V1.56055ZM414.794 205.561C414.794 92.9076 322.176 1.56055 207.897 1.56055V-0.439453C323.254 -0.439453 416.794 91.7767 416.794 205.561H414.794ZM369.058 333.499C397.668 298.506 414.794 254.006 414.794 205.561H416.794C416.794 254.487 399.496 299.43 370.606 334.765L369.058 333.499ZM401.905 335.132H369.832V333.132H401.905V335.132ZM439 372.227C439 351.74 422.392 335.132 401.905 335.132V333.132C423.496 333.132 441 350.636 441 372.227H439ZM401.905 409.323C422.392 409.323 439 392.714 439 372.227H441C441 393.819 423.496 411.323 401.905 411.323V409.323ZM218.005 409.323H401.905V411.323H218.005V409.323ZM207.897 409.561C211.27 409.561 214.624 409.481 217.957 409.324L218.052 411.321C214.687 411.48 211.301 411.561 207.897 411.561V409.561ZM197.837 409.324C201.17 409.481 204.524 409.561 207.897 409.561V411.561C204.492 411.561 201.107 411.48 197.742 411.321L197.837 409.324ZM194.38 409.323H197.789V411.323H194.38V409.323ZM186.544 408.494C189.069 409.036 191.691 409.323 194.38 409.323V411.323C191.549 411.323 188.786 411.021 186.124 410.449L186.544 408.494Z" fill="#999999" mask="url(#path-1-inside-1_249_180)"/>
</svg>
