<?xml version="1.0" encoding="UTF-8"?>
<!DOCTYPE svg PUBLIC "-//W3C//DTD SVG 1.1//EN" "http://www.w3.org/Graphics/SVG/1.1/DTD/svg11.dtd">
<!-- Creator: CorelDRAW 2019 (64-Bit) -->
<svg xmlns="http://www.w3.org/2000/svg" xml:space="preserve" width="1.17805in" height="1.17805in" version="1.1" style="shape-rendering:geometricPrecision; text-rendering:geometricPrecision; image-rendering:optimizeQuality; fill-rule:evenodd; clip-rule:evenodd"
viewBox="0 0 966.33 966.33"
 xmlns:xlink="http://www.w3.org/1999/xlink"
 xmlns:xodm="http://www.corel.com/coreldraw/odm/2003">
 <defs>
  <style type="text/css">
   <![CDATA[
    .fil0 {fill:black}
   ]]>
  </style>
 </defs>
 <g id="Layer_x0020_1">
  <metadata id="CorelCorpID_0Corel-Layer"/>
  <path class="fil0" d="M492.6 896.5c20.51,5.48 34.55,37.75 0,37.75 -5.64,0 -14.42,-10.23 -18.87,-13.21 5.89,-8.79 16.12,-12.71 18.87,-24.53zm-69.83 22.64c-8.95,0 -16.99,-8.04 -16.99,-16.98 0,-8.9 30.84,-43.41 45.3,-43.41 10.66,0 15.1,6.87 15.1,16.99 0,10.41 -33.29,43.41 -43.41,43.41zm-47.19 -47.18c-14.41,0 -23.79,-16.77 -8.08,-32.62 11.49,-11.59 23.85,-27.78 36.39,-27.78 13.9,0 24.09,15.7 7.12,33.54 -7.37,7.75 -22.85,26.86 -35.43,26.86zm-45.3 -47.18c-16.15,0 -16.99,-9.31 -16.99,-20.76 0,-5.83 15.05,-17.88 19.35,-22.18 5.95,-5.96 13.82,-17.46 24.06,-17.46 9.49,0 16.99,8.21 16.99,16.99 0,8.68 -32.02,43.41 -43.41,43.41zm-64.17 -62.28c0,-12.95 13.31,-21.73 26.84,-35.44 18.93,-19.18 33.55,-4.83 33.55,7.13 0,11.5 -30.48,44.79 -45.05,44.27 -9.2,-0.32 -15.35,-6.74 -15.35,-15.96zm132.11 -109.47c-30.48,0 -24.39,-27.29 -19.31,-34.39 5.87,-8.2 26.49,-16.38 36.93,-21.61 13.65,-6.82 25.89,-12.94 39.01,-19.5 49.35,-24.68 57.92,-15.53 111.76,-0.41 32.31,9.07 42.55,15.51 73.2,15.51 9.26,0 161.89,-83.83 183.08,-94.37l111.35 -58.51 0 173.64 -261.97 130.97 -81.08 -72.91c-3.63,-3.36 -5.73,-6.18 -9.43,-9.44l-30.22 -26.4c-50.48,-50.23 -80.1,-23.89 -129.38,5.5 -5.85,3.49 -17.12,11.92 -23.94,11.92zm96.26 -13.21c21.1,0 31.58,17.25 44.5,27.22 7.58,5.85 10.8,10.75 18.87,16.98 7.62,5.88 11.98,11.44 19.95,17.8l57.67 51.8c13.84,11.57 17.54,14.59 17.54,25.86 0,8.94 -7.67,15.1 -15.1,15.1 -13.18,0 -37.7,-24.65 -51.23,-35.6l-35 -29.17c-6.2,-5.32 -4.66,-6.72 -13.8,-8.85 -6.17,9.22 -12.91,15.63 -18.87,24.54 7.66,4.05 41.61,33.46 51.24,41.24l25.59 21.59c4.18,3.44 8.52,6.91 10.48,12.39 2.06,5.76 0.01,12.55 -5.02,16.52 -15.52,12.26 -39.16,-12.22 -56.29,-27.15 -8.84,-7.71 -16.74,-13.9 -25.58,-21.6 -5.88,-5.13 -19.42,-18.36 -26.84,-20.34 -4.99,3.34 -15.16,17.11 -18.87,22.65 4.72,7.05 58.69,50.78 67.14,57.42 4.5,3.54 6.81,5.62 11.39,9.37 11.67,9.58 13.53,29.46 -10.59,29.46 -10.18,0 -16.55,-8.46 -22.65,-13.21 -34.5,-26.86 -28.26,-29.2 -38.23,-37.26 -7.01,-5.67 -15.67,-9.92 -27.82,-9.92 -5.77,-24.75 -17.18,-47.19 -47.19,-47.19 -2.13,-25.58 -20.34,-46.58 -47.19,-47.18 0,-14.8 -6.79,-24.84 -14.56,-32.62 -21.55,-21.57 -51.16,-18.13 -71.8,2.87 -8.12,8.26 -23.1,21.29 -28.76,29.75l-47.19 -28.31 20.99 -73.38c3.5,-11.99 6.7,-23.78 10.44,-36.74 2.81,-9.72 9.36,-28.31 10.09,-37.09 11.59,-0.26 80.96,-17.69 99.53,-21.27 26.7,-5.14 48.56,-7.92 75.67,-1.05 9.93,2.52 23.83,8.24 34.3,9.11 -13.17,17.98 -87,30.24 -101.24,66.73 -5.87,15.06 -4.62,32.35 1.77,45.95 12,25.52 43.62,38.62 73.1,23.27 11.63,-6.05 23.8,-14.15 35.45,-21.18 8.24,-4.97 27.63,-18.52 38.1,-18.52zm-334.06 75.49c-7.66,-0.17 -26.44,-6.73 -32.08,-9.44l54.3 -217.16c3.74,0.99 34.41,16.89 34.41,20.87 0,10.86 -43.58,157.38 -49.73,178.64 -2.42,8.39 -6.2,18.78 -6.89,27.08zm-62.28 -18.87c-8.66,-4.16 -23.61,-8.19 -33.73,-11.56 -11.55,-3.85 -32.33,-8.01 -32.33,-14.86l0 -264.23c14.5,0 19.33,4.95 35.97,14.99 11.96,7.21 84.82,48.02 84.82,51.06 0,7.89 -4.09,20.1 -6.04,27.93l-21.14 84.56c-4.83,19.34 -9.44,37.78 -13.96,55.87l-13.59 56.24zm307.64 -385.02c0,-35.85 -2.61,-54.09 19.61,-82.31 36.52,-46.39 135.16,-30.4 135.16,59.66 0,25.59 1.58,47.41 -14.81,68.24 -5.66,7.2 -7.75,9.4 -14.92,15.27 -21.89,17.92 -17.46,-6.21 -17.46,61.82 9.73,0.22 26.78,5.75 36.99,8.31 33.79,8.45 87.58,13.42 87.58,53.98l0 58.51c0,12.61 -26.58,1.66 -37.97,-1.66l-76.6 -21.54c-4.57,-0.88 -12.5,-1.1 -18.26,-2.5 -47.67,-11.58 -73.07,-30.92 -133.29,-30.92 -16.27,0 -28.74,4.44 -43.41,5.66 0,-48.18 38.64,-49.3 84.55,-60.78 9.2,-2.3 30.1,-8.83 40.02,-9.06l0 -47.18c0,-8.48 -12.07,-4.79 -31.53,-28.87 -8.96,-11.09 -15.65,-27.35 -15.65,-46.63zm249.13 -1.89c0,-36.37 -2.15,-52.29 19.89,-80.13 25.69,-32.45 80.01,-35.63 112.73,-1.54 25.32,26.39 22.13,52.76 22.13,87.33 0,23.74 -13.96,45.61 -30.71,58 -3.51,2.6 -5.85,4.06 -9.12,5.98 -11.51,6.75 -7.36,6.3 -7.36,49.26 0,7.67 22.15,10.26 35.48,13.59 9.2,2.3 30.1,8.83 40.02,9.06l0 3.78c-8.42,1.96 -72.86,37.42 -83.68,42.77l-84.3 44.05c0,-30.75 5.98,-61.22 -14.85,-87.06 -4.16,-5.16 -4.08,-2.33 -5.91,-9.19 16.82,-0.37 36.03,-10.95 52.85,-11.33l0 -47.18c0,-9.11 -14.11,-4.96 -32.14,-30.14 -8.24,-11.51 -15.04,-27.5 -15.04,-47.24zm-390.69 77.38l0 47.18c16.82,0.37 36.03,10.95 52.85,11.33 -2.31,8.63 -10.21,10.12 -16.14,27.26 -4.95,14.31 -4.62,20.46 -4.62,38.79l-47.18 11.33 0 -33.97c-13.32,-7.04 -26.61,-14.97 -39.53,-22.75 -6.63,-4 -13.03,-7.47 -20.27,-11.81 -4.06,-2.43 -5.39,-3.25 -9.46,-5.64l-10.01 -6.97c42.49,-9.9 33.97,-0.38 33.97,-54.73 0,-9.19 -14.41,-5.7 -30.76,-27.75 -20.07,-27.05 -16.42,-43.69 -16.42,-77.95 0,-99.13 154.77,-110.76 154.77,11.32 0,26.11 0.36,42.72 -15.04,64.23 -17.57,24.54 -32.14,21.35 -32.14,30.14zm109.47 -107.58c0,41.19 -2.03,74.36 30.61,109.06 6.7,7.12 15.68,8.53 16.58,19.28 -4.38,2.1 -56.19,15.1 -62.28,15.1 -6.09,0 -57.9,-13 -62.28,-15.1 0.21,-9.17 2.69,-7.46 15.58,-20.29 33.25,-33.1 31.61,-62.74 31.61,-106.17 0,-47.32 -30.07,-35.29 10.87,-81.61 9.49,-10.75 19.04,-19.34 31.01,-27.5 77.88,-53.12 178.92,-36.43 235.87,38.99 25.44,33.69 1.59,21.9 1.59,66.36 0,44.8 -2.66,75.83 31.61,109.94 12.11,12.05 15.37,11.28 15.57,20.29 -4.38,2.1 -56.19,15.1 -62.28,15.1 -6.09,0 -57.9,-13 -62.28,-15.1 0.98,-11.75 11.13,-8.82 30.99,-38.84 18.06,-27.29 16.2,-53.85 16.2,-85.73 0,-43 -26.14,-81.93 -59.1,-99.44 -69.96,-37.17 -159.84,12.94 -159.84,95.67zm-62.28 -75.49c-4.93,-3.3 -10.41,-8.56 -15.65,-12.66 -4.64,-3.63 -14.16,-7.73 -17.47,-10.83 -3.41,-3.19 -16.55,-35.19 -17.83,-40.68l48.61 -49.53c64.08,35.78 24.79,32.41 73.5,11.21 51.57,-22.44 54.81,-9.2 58.99,-31.61 2.23,-11.98 6.7,-26.31 7.65,-37.65l67.94 0c0.94,11.34 5.41,25.67 7.64,37.65 3.95,21.17 4.97,10.44 43.07,24.87l45.54 22.41c4.28,0 36.43,-22.73 43.41,-26.42l49.53 48.61c-2.58,8.36 -14.78,38.56 -20.59,42.62 -1.97,1.38 -2.68,1.43 -4.98,2.56 -4.77,2.34 -5.4,2.48 -9.68,5.42 -7.81,5.34 -7.3,7.46 -16.16,12.15l-28.78 -33.5c-6.31,-6.33 -9.11,-8.52 -15.93,-14.27 -28.26,-23.83 -75.34,-44.71 -111.94,-44.71 -53.97,0 -77.7,3.28 -123.48,31.29 -8.73,5.34 -10.28,6.07 -17.66,12.54 -6.74,5.91 -10.39,8.59 -16.94,15.15 -5.71,5.73 -11.11,10.16 -15.6,16.49 -4.46,6.29 -8.89,12.48 -13.19,18.9zm-5.66 -154.77l-83.51 82.58c3.69,14.31 12.43,26.67 15.56,40.1 -32.42,0 -56.93,7.1 -78.83,28.74 -38.73,38.27 -34.41,66.74 -34.41,116.58 0,21.91 11.39,47.67 23.06,61.88 15.51,18.9 23.28,18.52 24.13,28.72 -5.6,2.69 -28.17,7.82 -35.91,9.62 -7.39,1.71 -8.86,0.66 -15.66,-3.3l-28.53 -16.82c-47.97,-29.05 -32.3,-23.47 -91.66,-23.47l0 324.62c8.32,0.69 67.1,21.41 79.98,25.71 47.29,15.77 58.77,25.25 99.32,25.25 6.86,0 6.06,-6.81 7.55,-13.21 9.7,5.13 40.55,24.88 47.18,26.42 0,43.99 44.28,48.19 44.29,48.19 5.28,3.41 1.77,0.31 3.3,8.03 1.1,5.56 -0.04,2.85 2.65,8.67 3.19,6.9 4.7,9.85 9.6,14.94 7.41,7.68 18.29,14.54 32.64,14.54 5.76,24.74 17.18,47.18 47.19,47.18 0.67,30.09 33.46,58.68 69.25,42.62 21.58,-9.69 7.34,19.66 59.09,19.66 21.58,0 43.41,-20.27 43.41,-47.19 26.43,0 46.61,-19.72 47.19,-45.3 15.5,-3.61 22.56,-4.46 32.64,-14.54 7.84,-7.84 13.4,-18.9 14.54,-32.64 28.37,-2.36 47.19,-24.04 47.19,-54.73l278.96 -138.52 0.37 -229.52c-45.65,0 -26.13,-2.95 -62.28,15.1 -5.44,2.72 -10.6,4.94 -16.19,8.45 -9.22,5.77 -6.6,5.46 -15.88,1.14 -15.81,-7.38 -65.78,-15.33 -77.4,-20.91 0.9,-10.78 7.78,-8.69 23.26,-27.7 27.1,-33.27 23.92,-61.02 23.92,-100.64 0,-41.73 -28.44,-81.04 -65.39,-98.81 -15.35,-7.38 -25.92,-8.77 -47.85,-8.77 3.38,-14.49 11.72,-25.14 15.1,-39.64l-82.58 -83.51c-66.27,45.25 -36.15,29.84 -93.22,12.06 -15.22,-4.74 -12.47,-0.35 -19.71,-36.91 -1.61,-8.15 -3.95,-16.39 -4.56,-23.75l-120.79 0c-0.61,7.36 -2.95,15.6 -4.56,23.75 -8.84,44.66 -1.73,28.17 -40.22,44.72 -31.1,13.36 -16.09,18.2 -72.24,-19.4z"/>
 </g>
</svg>
