<?xml version="1.0" encoding="UTF-8"?>
<!DOCTYPE svg PUBLIC "-//W3C//DTD SVG 1.1//EN" "http://www.w3.org/Graphics/SVG/1.1/DTD/svg11.dtd">
<!-- Creator: CorelDRAW 2019 (64-Bit) -->
<svg xmlns="http://www.w3.org/2000/svg" xml:space="preserve" width="0.967909in" height="0.935063in" version="1.1" style="shape-rendering:geometricPrecision; text-rendering:geometricPrecision; image-rendering:optimizeQuality; fill-rule:evenodd; clip-rule:evenodd"
viewBox="0 0 275.67 266.32"
 xmlns:xlink="http://www.w3.org/1999/xlink"
 xmlns:xodm="http://www.corel.com/coreldraw/odm/2003">
 <defs>
  <style type="text/css">
   <![CDATA[
    .fil0 {fill:black}
   ]]>
  </style>
 </defs>
 <g id="Layer_x0020_1">
  <metadata id="CorelCorpID_0Corel-Layer"/>
  <g id="_2046149555728">
   <path class="fil0" d="M168.6 232.49c10.58,-2.46 23.53,-17.08 26.03,-17.75l14.79 26.62c-2.55,-0.59 -5.23,-0.86 -8.11,-1.35l-9.04 -1.01c-2.8,0 -9.99,11.58 -13.01,13.61 -0.55,-2.34 -7.7,-13.52 -10.65,-20.11zm-72.76 19.52c-3.73,-2.5 -8.89,-13.01 -13.01,-13.01 -6.08,0 -11.1,1.91 -16.56,2.37 0.45,-1.91 5.81,-10.66 7.3,-13.4l7.49 -13.22c1.87,0.5 7.15,6.29 11.99,9.9 3.07,2.28 10.17,6.95 14.04,7.85 -0.53,2.27 -1.47,3.23 -2.55,5.14 -1.77,3.15 -7.04,13.17 -8.69,14.38zm-24.25 -89.33c0,-19.37 9.57,-36.49 19.37,-46.3 40.45,-40.45 113.14,-13.83 113.14,47.48 0,22.73 -11.21,41.05 -28.48,53.75 -3.37,2.48 -6.74,4.11 -10.55,6.01 -20.35,10.11 -46.93,6.2 -64.97,-6.04l-9.15 -7.41c-11.93,-11.93 -19.36,-29.75 -19.36,-47.49zm3.55 43.18c-2.4,3.58 -4.38,7.64 -6.77,11.57l-16.68 29.46c-0.36,2.25 2.09,5.7 3.33,5.7 4.33,0 13.68,-1.8 18.76,-2.54 1.48,-0.22 4.35,-0.87 6.09,-1.01 3.61,2.42 13.26,17.16 15.97,17.16 5.42,0 7.37,-6.87 11.35,-13.49l9.35 -16.09c6.28,0.14 18.31,5.21 37.13,1.04 1.66,-0.37 3.24,-0.99 5.47,-1.04l13.5 23.18c1.73,2.85 4.87,10.99 11.18,3.27 13.96,-17.07 8.39,-14.73 23.74,-12.17 2.97,0.5 8.84,1.69 11.92,1.69 1.87,0 4.73,-2.76 4.73,-4.14 0,-2.4 -1.42,-4.29 -2.4,-5.89 -1.04,-1.7 -1.94,-3.4 -3.04,-5.24 -2.18,-3.63 -3.85,-6.79 -6.05,-10.51l-12.17 -20.96 2.4 -3.51c14.21,-23.94 14.5,-54.41 0.31,-77.88 -11.65,-19.29 -30.54,-32.32 -52.57,-36.17 -36.25,-6.33 -70.47,14.19 -83.68,47.33 -8.46,21.24 -6.46,43.16 3.77,63.34 0.74,1.45 1.26,2.23 1.94,3.38 0.41,0.7 0.62,1.15 1.1,1.86l0.49 0.69c1.06,1.41 0.04,0.07 0.81,0.96z"/>
   <path class="fil0" d="M101.16 166.82c0,-11.71 1.25,-20.51 10.48,-29.74 14.16,-14.16 38.23,-14.16 52.39,0 2.35,2.35 5.42,6.63 6.95,9.61 8.67,16.9 1.82,41.17 -16.58,49.71 -18.76,8.71 -41.42,1.28 -49.7,-16.56 -1.33,-2.87 -3.55,-8.94 -3.55,-13.02zm-10.06 -5.32c0,8.71 0.87,14.28 4.33,21.7 4.29,9.21 13.28,18.19 22.48,22.48 31.21,14.58 66.66,-9.28 66.66,-40.64l0 -3.55c0,-23.34 -21.62,-44.96 -44.96,-44.96 -16.96,0 -30.31,6.41 -39.98,19.77 -4.86,6.71 -8.53,16.15 -8.53,25.19z"/>
   <path class="fil0" d="M116.54 31.94c3.59,0 13.16,-1.15 15.07,-3.27 2.48,-2.76 4.13,-10.14 6.82,-12.11 0.2,2.39 4.3,10.45 5.72,12.02 2.15,2.38 11.35,3.28 14.98,3.36 -1.83,2.74 -10.06,8.8 -10.06,11.83 0,2.54 1.65,12.11 2.37,13.61 -3.83,-0.89 -10.86,-6.4 -13.53,-6.33 -3.64,0.1 -9.58,5.37 -13.68,6.33 0.6,-1.24 2.37,-10.93 2.37,-13.01 0,-4.1 -7.9,-9.2 -10.06,-12.42zm-15.97 -3.55c0,3.05 8.59,11.12 11.49,13.36 6.41,4.95 4.5,3.71 2.63,14.96 -0.82,4.96 -4.59,14.87 3.04,14.87 2.51,0 7.81,-3.63 10.05,-4.74 13.52,-6.67 6.73,-6.61 19.72,-0.19 3.32,1.64 8.13,4.93 10.45,4.93 7.3,0 4.25,-9.5 3.21,-15.04 -0.65,-3.42 -1.77,-7.91 -2.02,-10.99 2.1,-0.56 2.87,-1.97 4.29,-3.4 4.47,-4.52 11.68,-9.99 11.68,-13.75 0,-5.18 -5.17,-4.83 -9.88,-5.51 -4.11,-0.59 -9.59,-1.59 -14.38,-1.59l-5.32 -11.83c-1.54,-3.05 -3.39,-9.46 -7.69,-9.46 -6.04,0 -8.68,14.67 -12.61,19.92 -3.28,4.37 -24.65,-0.27 -24.65,8.47z"/>
   <path class="fil0" d="M225.39 99.98l0 0zm0 0c0,-4.48 2.98,-11.92 1.2,-15.4 -1.15,-2.26 -9.07,-7.94 -9.09,-9.05 -0.04,-1.62 1.02,-0.77 6.74,-1.55 2.77,-0.38 5.84,-0.44 7.54,-1.93 1.74,-1.53 5.38,-9.52 6.03,-12.31l1.18 0c0.42,1.81 4.96,11.18 6.06,12.28 1.42,1.43 4.64,1.62 7,1.87 4.73,0.51 7.29,0.14 7.25,1.63 -0.02,0.83 -7.88,7.69 -8.88,9.28 -1.57,2.5 0.85,12.63 1.58,15.76 -2.27,-1.2 -11.05,-6.3 -13.09,-6.48 -3.81,-0.35 -9.53,4.96 -13.53,5.89zm-24.25 -28.99c0,4.74 15.26,15.59 15.97,18.34 1.04,4.02 -8.75,24.85 1.18,24.85 3.5,0 7.49,-3.18 10.64,-4.74l8.08 -4.34c1.2,-0.71 0.6,-0.3 1.39,-0.98 2.85,1.91 6.47,3.54 9.49,5.3 1.53,0.89 3.16,1.57 4.71,2.39 3.59,1.89 2.27,2.37 7.09,2.37 6.02,0 2.51,-11.77 2.03,-14.45 -0.71,-3.95 -1.2,-7.44 -2.03,-10.99 3.3,-2.21 5.25,-5.49 8.53,-8.03 2.28,-1.76 7.44,-5.78 7.44,-9.12 0,-8.52 -19.64,-4.9 -23.87,-8.08 -2.92,-2.19 -7.95,-20.32 -12.22,-20.32 -5.67,0 -5.84,3.39 -8.48,8.68 -0.57,1.13 -5.31,11.15 -5.36,11.2 -3.38,3.38 -24.61,0.25 -24.61,7.93z"/>
   <path class="fil0" d="M36.68 59.75l1.18 0c0.41,1.76 1.21,3.13 2.02,5.08 3.62,8.7 4.42,8.34 12.12,9.17 5.74,0.62 8.99,0.16 3.35,4.43 -11.69,8.87 -5.08,10.4 -5.08,21.55 -4.1,-0.96 -9.84,-5.92 -13.01,-5.92 -2.46,0 -11.27,5.27 -13.61,6.51 2.65,-11.36 4.13,-14.36 -0.67,-18.26 -1.41,-1.14 -2.3,-2.16 -3.62,-3.48 -4.57,-4.53 -4.89,-3.91 2.62,-4.77 5.69,-0.66 7.85,0.04 9.98,-4.22 1.19,-2.39 4.14,-7.63 4.71,-10.08zm-12.42 4.14c-4.01,0 -10.11,1.25 -14.17,1.81 -4.67,0.64 -10.09,0.45 -10.09,5.88 0,3.59 3.4,4.86 7.54,9.02 2.42,2.42 5.86,6.41 8.43,8.13 -1.06,12.73 -8.5,25.44 1.77,25.44 3.37,0 16.51,-9.47 19.52,-9.47 1.51,0 7.77,3.9 9.46,4.74 6.41,3.16 17.88,11.88 14.35,-6.07 -3.39,-17.28 -4.67,-12.19 5.62,-22.47 1.51,-1.51 2.57,-2.79 4.21,-4.07 1.16,-0.91 3.63,-3.11 3.63,-4.65 0,-9.62 -19.61,-5.04 -24.3,-8.83 -3.12,-2.53 -6.68,-20.16 -12.97,-20.16 -4.76,0 -5.15,4.44 -7.69,9.47 -1.32,2.61 -4.71,8.6 -5.33,11.24z"/>
   <path class="fil0" d="M130.14 172.15c-1.6,-3.03 -4.01,-7.37 -5.88,-10.09 -3.01,-4.35 -8.9,-3.44 -8.9,2.4 0,2.53 6.47,12.57 8.48,16.37 5.55,10.49 12.02,0.11 22.14,-10.01 4.37,-4.37 14.34,-12.47 14.34,-17.01 0,-2.86 -1.87,-4.73 -4.73,-4.73 -4.75,0 -18.82,18.64 -25.44,23.07z"/>
  </g>
 </g>
</svg>
